<svg xmlns="http://www.w3.org/2000/svg" width="28.497" height="28.47" viewBox="0 0 28.497 28.47">
  <g id="LI-In-Bug" transform="translate(-0.338 -0.243)">
    <path id="Path_2" data-name="Path 2" d="M14.579.247H26.717a2.084,2.084,0,0,1,2.093,1.714,2.163,2.163,0,0,1,.027.316V26.694A2.028,2.028,0,0,1,26.9,28.713H2.471A2,2,0,0,1,.426,27.25a2.2,2.2,0,0,1-.087-.6q0-12.17,0-24.345A2.017,2.017,0,0,1,2.365.249c.977-.013,1.957,0,2.934,0Q9.94.245,14.579.247Zm.955,12.409V11.191c0-.249-.076-.318-.321-.316-1.155.011-2.311,0-3.466,0-.354,0-.354,0-.354.347q0,6.507,0,13.01c0,.274.085.352.35.35,1.2-.013,2.4,0,3.6,0,.356,0,.358,0,.358-.35V17.7a7.791,7.791,0,0,1,.111-1.349,2.118,2.118,0,0,1,1.574-1.91,3.751,3.751,0,0,1,.922-.085,1.747,1.747,0,0,1,1.874,1.476,8.067,8.067,0,0,1,.178,1.685c.018,2.24,0,4.479,0,6.719,0,.267.082.354.352.352,1.2-.013,2.4,0,3.6,0,.258,0,.352-.062.35-.341-.011-2.6.02-5.191-.02-7.792a12.4,12.4,0,0,0-.325-2.576,3.81,3.81,0,0,0-2.772-3.05,10.659,10.659,0,0,0-1.647-.252,4.4,4.4,0,0,0-2.64.519,5.027,5.027,0,0,0-1.723,1.558ZM4.511,17.72v6.529c0,.223.045.321.289.318q1.868-.013,3.733,0c.223,0,.285-.085.285-.3V11.182c0-.24-.082-.3-.309-.3-1.227,0-2.449.011-3.68,0-.265,0-.323.082-.323.334C4.515,13.384,4.511,15.55,4.511,17.72ZM6.659,9.063a2.449,2.449,0,1,0-1.744-.71,2.473,2.473,0,0,0,1.744.71Z" transform="translate(0)" fill="#20495b"/>
  </g>
</svg>
