<svg xmlns="http://www.w3.org/2000/svg" viewBox="0 0 294.81 294.8"><defs><style>.cls-1{fill:#fff;}.cls-2{fill:#9599e2;}</style></defs><g id="Layer_2" data-name="Layer 2"><g id="Layer_1-2" data-name="Layer 1"><path class="cls-1" d="M146.6,148.34l.25.25L43.5,252l-.25-.26Z"/><path class="cls-1" d="M294.81,147.4a147,147,0,0,1-44.05,105.1l-7.23-7.23,7-7.1a137.42,137.42,0,0,0,1.1-180.26l-.06.06-7.07-7.07L252,43.49A146.92,146.92,0,0,1,294.81,147.4Z"/><path class="cls-1" d="M252,43.49,161.4,134l-14.55,14.55-.25-.25L43.25,251.69A147.4,147.4,0,1,1,252,43.49Z"/><path class="cls-2" d="M250.76,252.5A147.41,147.41,0,0,1,43.5,252L146.85,148.59l13.54,13.54,83.14,83.14Z"/></g></g></svg>