<svg xmlns="http://www.w3.org/2000/svg" width="28.497" height="23.156" viewBox="0 0 28.497 23.156">
  <g id="Logo_1_" transform="translate(-1 -1.497)">
    <path id="white_background" fill="#FFFFFF" d="M26.58,7.262c.017.251.017.5.017.756,0,7.726-5.881,16.635-16.635,16.635v0A16.552,16.552,0,0,1,1,22.028a11.893,11.893,0,0,0,1.392.085A11.74,11.74,0,0,0,9.653,19.6a5.854,5.854,0,0,1-5.462-4.06,5.828,5.828,0,0,0,2.64-.1A5.847,5.847,0,0,1,2.14,9.713V9.639a5.81,5.81,0,0,0,2.654.732,5.854,5.854,0,0,1-1.81-7.807,16.594,16.594,0,0,0,12.05,6.108A5.852,5.852,0,0,1,25,3.34,11.732,11.732,0,0,0,28.71,1.92a5.868,5.868,0,0,1-2.57,3.234,11.628,11.628,0,0,0,3.357-.92A11.878,11.878,0,0,1,26.58,7.262Z" transform="translate(0 0)"/>
  </g>
</svg>
